<?xml version="1.0" standalone="no"?>
<!DOCTYPE svg PUBLIC "-//W3C//DTD SVG 20010904//EN"
 "http://www.w3.org/TR/2001/REC-SVG-20010904/DTD/svg10.dtd">
<svg version="1.0" xmlns="http://www.w3.org/2000/svg"
 width="835.000000pt" height="835.000000pt" viewBox="0 0 835.000000 835.000000"
 preserveAspectRatio="xMidYMid meet">
<metadata>
Created by potrace 1.11, written by Peter Selinger 2001-2013
</metadata>
<g transform="translate(0.000000,835.000000) scale(0.100000,-0.100000)"
fill="#000000" stroke="none">
<path d="M3129 7535 c-1 0 -3 -56 -4 -125 -2 -69 -3 -128 -4 -131 -1 -3 -105
-5 -232 -5 -127 1 -236 -2 -242 -6 -9 -5 -12 -135 -13 -480 -1 -260 -2 -482
-3 -493 -1 -19 -8 -20 -243 -20 l-243 0 -1 -795 c0 -437 1 -800 3 -806 4 -12
61 -13 79 -2 6 4 14 4 18 0 12 -11 107 -11 99 1 -4 6 -1 7 8 1 21 -14 150 -14
142 0 -5 8 -3 8 8 0 20 -15 62 -15 71 -1 5 7 8 8 8 1 0 -13 318 -13 339 0 9 6
12 5 8 -1 -8 -12 91 -12 110 0 6 4 14 3 18 -3 3 -6 17 -8 30 -6 14 3 28 -1 32
-7 8 -13 11 -476 3 -478 -3 -1 -446 -3 -985 -4 -539 -2 -983 -3 -986 -4 -3 -1
-4 -12 -1 -26 3 -17 0 -25 -9 -25 -11 0 -11 -2 0 -9 13 -8 13 -12 0 -27 -8
-10 -9 -15 -3 -11 13 8 13 -131 0 -152 -6 -9 -5 -12 1 -8 6 4 10 -16 11 -53 0
-39 -4 -60 -11 -60 -7 0 -6 -4 2 -9 13 -8 13 -12 0 -27 -8 -10 -9 -15 -2 -11
8 5 11 -6 10 -38 -2 -32 -6 -45 -17 -46 -8 0 -145 -1 -305 -2 l-290 -2 -1
-239 c0 -141 -5 -241 -10 -243 -5 -2 -120 -4 -254 -6 l-245 -2 1 -67 c0 -42
-4 -68 -10 -68 -6 0 -4 -5 4 -10 13 -9 13 -11 0 -20 -8 -5 -10 -10 -4 -10 14
0 13 -200 -1 -200 -5 0 -3 -5 5 -10 13 -9 13 -11 0 -20 -8 -5 -10 -10 -4 -10
14 0 13 -200 -1 -200 -5 0 -3 -5 5 -10 13 -9 13 -11 0 -20 -8 -5 -10 -10 -4
-10 14 0 13 -200 -1 -200 -5 0 -3 -5 5 -10 13 -9 13 -11 0 -20 -8 -5 -10 -10
-4 -10 6 0 10 -37 10 -100 0 -58 -5 -100 -10 -100 -6 0 -5 -5 2 -12 8 -8 82
-12 262 -12 l250 0 1 -30 c0 -17 0 -128 0 -246 l0 -215 305 0 c167 0 305 2
305 5 6 24 3 213 -4 217 -4 2 -2 11 4 20 10 12 10 16 -2 24 -9 5 -10 9 -2 9 7
0 12 16 11 40 0 27 -4 38 -12 33 -7 -4 -6 -1 1 9 7 8 12 35 12 59 -3 83 -27
75 244 75 l242 -1 1 -245 1 -245 -243 1 c-271 0 -250 6 -244 -63 1 -13 -4 -23
-12 -23 -10 0 -10 -2 1 -9 13 -8 13 -12 0 -27 -8 -10 -9 -15 -3 -11 8 5 12 -6
12 -33 1 -24 -4 -40 -11 -40 -8 0 -7 -4 2 -9 13 -8 13 -12 0 -27 -9 -11 -9
-15 -1 -10 6 4 12 2 12 -3 0 -6 -6 -11 -12 -11 -9 0 -8 -4 2 -10 13 -8 13 -13
2 -31 -8 -11 -9 -18 -3 -14 6 3 11 -1 11 -9 0 -9 -6 -16 -12 -16 -9 0 -8 -4 2
-10 13 -8 13 -13 2 -31 -8 -11 -9 -19 -4 -15 10 6 11 -89 0 -99 -3 -4 -142 -7
-307 -7 l-300 0 0 -124 0 -124 2600 0 2599 0 1 113 c1 61 1 117 0 124 -1 8
321 11 1298 11 715 0 1305 3 1311 7 8 5 8 10 0 20 -8 10 -7 14 2 17 11 4 11 8
0 20 -7 9 -9 19 -4 22 11 6 9 36 -3 55 -5 9 -4 12 3 7 7 -4 10 1 9 14 -1 11
-6 20 -12 20 -5 0 -4 4 4 9 10 6 10 10 1 16 -9 6 -9 9 1 15 10 7 10 12 1 23
-7 7 -9 16 -7 19 11 11 13 48 4 54 -6 4 -5 11 2 21 10 12 10 16 -2 24 -11 7
-11 9 0 9 10 0 11 3 2 14 -9 11 -9 15 1 18 11 4 11 8 0 20 -7 9 -9 19 -4 22
11 6 9 36 -3 55 -5 9 -4 12 3 7 7 -4 10 1 9 14 -1 11 -6 20 -12 20 -5 0 -4 4
4 9 10 6 10 10 1 16 -9 6 -9 9 1 15 10 7 10 12 1 23 -7 7 -9 16 -7 19 11 11
13 48 4 54 -6 4 -5 11 2 21 10 12 10 16 -2 24 -11 7 -11 9 0 9 10 0 11 3 2 14
-9 11 -9 15 1 18 11 4 11 8 0 20 -7 9 -9 19 -4 22 11 6 9 36 -3 55 -5 9 -4 12
2 8 5 -4 10 7 10 23 0 17 -5 30 -11 30 -6 0 -5 4 3 9 10 6 10 10 1 16 -9 6 -9
9 1 15 10 7 10 12 0 23 -6 9 -8 18 -3 21 11 6 9 36 -3 55 -5 9 -4 12 3 7 7 -4
10 1 9 14 -1 11 -6 20 -12 20 -5 0 -4 4 4 9 10 6 10 10 1 16 -9 6 -9 9 1 15
10 7 10 12 1 23 -7 7 -9 16 -7 19 11 11 13 48 4 54 -6 4 -5 11 2 21 10 12 10
16 -2 24 -11 7 -11 9 0 9 10 0 11 3 2 14 -9 11 -9 15 1 18 11 4 11 8 0 20 -7
9 -9 19 -4 22 11 6 9 36 -3 55 -5 9 -4 12 3 7 7 -4 10 1 9 14 -1 11 -6 20 -12
20 -5 0 -4 4 4 9 10 6 10 10 1 16 -9 6 -9 9 1 15 10 7 10 12 1 23 -7 7 -9 16
-7 19 11 11 13 48 4 54 -6 4 -5 11 2 21 10 12 10 16 -2 24 -11 7 -11 9 0 9 10
0 11 3 2 14 -9 11 -9 15 1 18 11 4 11 8 0 20 -7 9 -9 19 -4 22 11 6 9 36 -3
55 -5 9 -4 12 3 7 7 -4 10 1 9 14 -1 11 -6 20 -12 20 -5 0 -4 4 4 9 10 6 10
10 1 16 -9 6 -9 9 1 15 10 7 10 12 1 23 -7 7 -9 16 -7 19 11 11 13 48 4 54 -6
4 -5 11 2 21 10 12 10 16 -2 24 -11 7 -11 9 0 9 10 0 11 3 2 14 -9 11 -9 15 1
18 11 4 11 8 0 20 -7 9 -9 19 -4 22 11 6 9 36 -3 55 -5 9 -4 12 3 7 11 -7 11
39 -1 51 -4 3 -2 13 5 20 9 11 9 17 -3 24 -11 7 -11 9 0 9 10 0 11 3 2 14 -9
11 -9 15 1 18 11 4 11 8 0 20 -7 9 -9 19 -4 22 11 6 9 36 -3 55 -5 9 -4 12 3
7 7 -4 10 1 9 14 -1 11 -6 20 -12 20 -5 0 -4 4 4 9 10 6 10 10 1 16 -9 6 -9 9
1 15 10 7 10 12 1 23 -7 7 -9 16 -7 19 11 11 13 48 4 54 -6 4 -5 11 2 21 10
11 10 16 0 22 -7 4 -119 7 -249 7 -234 -1 -237 -1 -238 -22 -1 -12 -5 -27 -9
-34 -5 -8 -4 -11 1 -7 11 6 11 -203 1 -221 -4 -6 -4 -13 0 -15 10 -6 10 -148
0 -164 -4 -6 -4 -14 0 -16 10 -6 9 -289 0 -304 -4 -6 -3 -13 0 -17 9 -9 10
-315 1 -310 -4 2 -9 1 -11 -3 -6 -10 -965 -9 -975 1 -13 13 -12 240 1 248 9 6
9 8 0 8 -7 0 -13 7 -13 15 0 8 6 15 13 15 8 0 7 4 -3 10 -13 8 -13 13 -2 31 8
11 9 19 4 16 -10 -7 -12 1266 -1 1273 4 3 113 5 243 4 156 0 237 3 239 10 2 6
3 116 2 244 0 181 2 232 12 232 7 0 13 6 13 13 0 8 3 8 8 1 4 -7 87 -10 242
-10 l235 0 1 28 c1 16 -3 25 -9 21 -6 -4 -7 -1 -2 7 12 19 12 119 1 113 -5 -4
-6 0 -1 7 12 20 12 119 0 112 -7 -4 -7 -1 0 9 6 8 10 53 9 101 0 55 3 88 10
91 6 2 114 3 239 2 212 0 229 1 239 18 6 12 6 23 -2 32 -8 10 -8 14 2 17 11 4
11 8 0 20 -7 9 -9 19 -4 22 11 6 9 36 -3 55 -5 9 -4 12 3 7 7 -4 10 1 9 14 -1
11 -6 20 -12 20 -5 0 -4 4 4 9 10 6 10 10 1 16 -9 6 -9 9 1 15 10 7 10 12 1
23 -7 7 -9 16 -7 19 11 11 13 48 4 54 -6 4 -5 11 2 21 10 12 10 16 -2 24 -11
7 -11 9 0 9 10 0 11 3 2 14 -9 11 -9 15 1 18 11 4 11 8 0 20 -7 9 -9 19 -4 22
11 6 9 36 -3 55 -5 9 -4 12 3 7 7 -4 10 1 9 14 -1 11 -6 20 -12 20 -5 0 -4 4
4 9 10 6 10 10 1 16 -9 6 -9 9 1 15 10 7 10 12 1 23 -7 7 -9 16 -7 19 11 11
13 48 4 54 -6 4 -5 11 2 21 10 12 10 16 -2 24 -11 7 -11 9 0 9 10 0 11 3 2 14
-9 11 -9 15 1 18 11 4 11 8 0 20 -7 9 -9 19 -4 22 11 6 9 36 -3 55 -5 9 -4 12
3 7 7 -4 10 1 9 14 -1 11 -6 20 -12 20 -5 0 -4 4 4 9 10 6 10 10 1 16 -9 6 -9
9 1 15 10 7 10 12 1 23 -7 7 -9 16 -7 19 11 11 13 48 4 54 -6 4 -5 11 2 21 10
12 10 16 -2 24 -11 7 -11 9 0 9 10 0 11 3 2 14 -9 11 -9 15 1 18 11 4 11 8 0
20 -7 9 -9 19 -4 22 11 6 9 36 -3 55 -5 10 -4 12 4 7 11 -7 11 2 1 49 -1 6 -1
12 0 15 1 3 2 141 3 308 1 196 -2 302 -8 302 -5 0 -4 4 4 9 10 6 10 10 1 16
-9 6 -9 9 1 15 10 7 10 12 1 23 -7 7 -9 16 -7 19 11 11 13 48 4 54 -6 4 -5 11
2 21 10 12 10 16 -2 24 -11 7 -11 9 0 9 10 0 11 3 2 14 -9 11 -9 15 1 18 11 4
11 8 0 20 -7 9 -9 19 -4 22 11 6 9 36 -3 55 -6 10 -4 12 4 7 15 -10 11 25 -4
36 -6 5 -5 8 4 8 11 0 11 3 1 15 -9 10 -9 15 -1 15 11 0 11 27 -1 45 -4 7
-254 10 -745 10 -712 0 -738 -1 -741 -19 -3 -13 0 -16 10 -10 10 6 11 5 2 -7
-8 -9 -11 -54 -10 -120 l1 -105 -560 0 -560 1 -5 130 -5 131 -1297 0 c-714 0
-1299 0 -1299 -1z m3722 -785 c1 -8 0 -23 -1 -34 -1 -13 2 -16 12 -10 10 6 11
5 2 -7 -15 -19 -15 -161 0 -152 7 5 7 2 -1 -8 -7 -9 -11 -51 -9 -119 3 -163
33 -145 -242 -144 -130 1 -239 2 -242 3 -5 1 -6 486 -1 486 0 0 109 0 241 0
207 0 240 -2 241 -15z m-4711 -4211 c4 -6 5 -408 1 -469 -1 -13 -35 -15 -244
-14 -133 0 -247 3 -253 7 -6 3 -10 30 -8 62 2 37 -1 55 -9 55 -9 0 -9 2 -1 8
8 5 11 61 10 177 -1 94 2 173 6 176 12 8 492 7 498 -2z"/>
</g>
</svg>
